# xmcd
#
# Track frame offsets:
#	183
#	15635
#	39745
#	42418
#	70660
#	105880
#	152900
#	169818
#	182043
#	195913
#	205473
#	213770
#	228270
#
# Disc length: 3243
#
# Revision: 1
# Processed by: cddbd v1.5.1PL0 Copyright (c) Steve Scherf et al.
# Submitted via: CDex 1.51
# Normalized: r0:DSETVAR1
#
DISCID=a50ca90d
DTITLE=Various Artist - Monterey Pop Festival 1967 Vol.IV
DYEAR=1967
DGENRE=Rock
TTITLE0=Big Brothers and Holding Company With Janis Joplin - Down On Me
TTITLE1=Big Brothers and Holding Company With Janis Joplin - Combination Of The Two
TTITLE2=Big Brothers and Holding Company With Janis Joplin - Harry
TTITLE3=Big Brothers and Holding Company With Janis Joplin - Road Block
TTITLE4=Big Brothers and Holding Company With Janis Joplin - Ball And Chain
TTITLE5=Grateful Dead - I've Got A Friend (Aka 'Viola Lee Blues')
TTITLE6=Grateful Dead - Out In The Cold, Rain and Snow
TTITLE7=Byrds - He Was A Friend Of Mine
TTITLE8=Byrds - Hey Joe
TTITLE9=Byrds - So You Want To Be A Rock and Roll Star
TTITLE10=Jimi Hendrix Experience - Sgt, Peppers Lonely Heart Club Band
TTITLE11=Jimi Hendrix Experience - Purple Haze
TTITLE12=Jimi Hendrix Experience - The Wind Cries Mary
EXTD=YEAR: 1967
EXTT0=
EXTT1=
EXTT2=
EXTT3=
EXTT4=
EXTT5=
EXTT6=
EXTT7=
EXTT8=
EXTT9=
EXTT10=
EXTT11=
EXTT12=
PLAYORDER=
